HIERARCHY
ROOT Hips
{
 OFFSET 0.000000 0.000000 0.000000
 CHANNELS 6 Xposition Yposition Zposition Yrotation Xrotation Zrotation
 JOINT Chest
 {
  OFFSET 0.000000 9.585900 0.002600
  CHANNELS 3 Yrotation Xrotation Zrotation
  JOINT Chest2
  {
   OFFSET 0.000000 9.601200 -0.005300
   CHANNELS 3 Yrotation Xrotation Zrotation
   JOINT Chest3
   {
    OFFSET 0.000000 9.561800 0.000000
    CHANNELS 3 Yrotation Xrotation Zrotation
    JOINT Chest4
    {
     OFFSET 0.000000 9.552100 0.000000
     CHANNELS 3 Yrotation Xrotation Zrotation
     JOINT Neck
     {
      OFFSET 0.000000 14.453000 0.000000
      CHANNELS 3 Yrotation Xrotation Zrotation
      JOINT Head
      {
       OFFSET 0.000000 8.936500 -0.011300
       CHANNELS 3 Yrotation Xrotation Zrotation
       End Site
       {
        OFFSET 0.000000 17.073600 -0.006000
       }
      }
     }
     JOINT RightCollar
     {
      OFFSET -2.921100 9.558500 0.000000
      CHANNELS 3 Yrotation Xrotation Zrotation
      JOINT RightShoulder
      {
       OFFSET -13.519700 0.000000 0.000000
       CHANNELS 3 Yrotation Xrotation Zrotation
       JOINT RightElbow
       {
        OFFSET 0.000000 -29.696600 0.000000
        CHANNELS 3 Yrotation Xrotation Zrotation
        JOINT RightWrist
        {
         OFFSET 0.000000 -24.004700 0.000000
         CHANNELS 3 Yrotation Xrotation Zrotation
         End Site
         {
          OFFSET 0.000000 -17.728500 0.000000
         }
        }
       }
      }
     }
     JOINT LeftCollar
     {
      OFFSET 2.921100 9.558500 0.000000
      CHANNELS 3 Yrotation Xrotation Zrotation
      JOINT LeftShoulder
      {
       OFFSET 13.519700 0.000000 0.000000
       CHANNELS 3 Yrotation Xrotation Zrotation
       JOINT LeftElbow
       {
        OFFSET 0.000000 -29.696600 0.000000
        CHANNELS 3 Yrotation Xrotation Zrotation
        JOINT LeftWrist
        {
         OFFSET 0.000000 -24.004700 0.000000
         CHANNELS 3 Yrotation Xrotation Zrotation
         End Site
         {
          OFFSET 0.000000 -17.728500 0.000000
         }
        }
       }
      }
     }
    }
   }
  }
 }
 JOINT RightHip
 {
  OFFSET -7.771700 -0.012900 -0.001300
  CHANNELS 3 Yrotation Xrotation Zrotation
  JOINT RightKnee
  {
   OFFSET 0.000000 -40.869800 0.001200
   CHANNELS 3 Yrotation Xrotation Zrotation
   JOINT RightAnkle
   {
    OFFSET 0.000000 -39.717900 0.002100
    CHANNELS 3 Yrotation Xrotation Zrotation
    JOINT RightToe
    {
     OFFSET 0.000000 -4.965400 11.033500
     CHANNELS 3 Yrotation Xrotation Zrotation
     End Site
     {
      OFFSET 0.000000 -1.423100 5.872300
     }
    }
   }
  }
 }
 JOINT LeftHip
 {
  OFFSET 7.771700 -0.012900 -0.001300
  CHANNELS 3 Yrotation Xrotation Zrotation
  JOINT LeftKnee
  {
   OFFSET 0.000000 -40.869800 0.001200
   CHANNELS 3 Yrotation Xrotation Zrotation
   JOINT LeftAnkle
   {
    OFFSET 0.000000 -39.717900 0.002100
    CHANNELS 3 Yrotation Xrotation Zrotation
    JOINT LeftToe
    {
     OFFSET 0.000000 -4.965400 11.033500
     CHANNELS 3 Yrotation Xrotation Zrotation
     End Site
     {
      OFFSET 0.000000 -1.423100 5.872300
     }
    }
   }
  }
 }
}
MOTION
Frames: 11
Frame Time: 0.008333
0.000000 85.388000 0.000000 0.000000 -5.767877 0.000000 0.000000 11.653817 0.000000 0.000000 -5.885947 0.000000 0.000000 -0.000000 0.000000 0.000000 -0.000000 0.000000 0.000000 12.528835 0.000000 0.000000 0.711642 0.000000 0.000000 -0.000000 0.000000 0.000000 0.000000 -90.000000 0.000000 -2.309062 0.000000 0.000000 2.309062 0.000000 0.000000 -0.000000 0.000000 0.000000 -0.000000 90.000000 0.000000 -2.309062 0.000000 0.000000 2.309062 0.000000 0.000000 8.520406 0.000000 0.000000 1.905762 0.000000 -0.000000 -4.658285 0.000000 0.000000 -0.000000 0.000000 0.000000 8.520406 0.000000 0.000000 1.905762 0.000000 -0.000000 -4.658285 0.000000 0.000000 -0.000000 0.000000
-66.978157 63.185602 15.101026 179.109218 -48.802405 -2.316688 4.764670 23.475484 3.820910 0.617079 3.608727 0.419910 1.037766 5.823826 0.689708 3.963971 19.744965 2.853256 -0.407566 25.283076 5.853018 -2.069870 11.298259 10.505545 0.241024 5.518135 3.972832 -2.050288 -5.983511 -13.634096 -124.547586 -61.011498 157.162554 15.354723 0.166269 -4.112105 -8.224621 2.209487 1.282632 -1.967056 -5.111528 11.952715 -47.968222 -87.647536 27.238641 4.527203 6.581096 4.926191 -15.147919 -20.565598 -3.941558 -32.306803 79.072650 -32.699263 0.417820 11.903208 1.699053 1.671091 -25.140407 -8.578608 -1.035520 -20.946875 -2.677866 17.889889 59.827584 12.995889 1.021358 1.476136 -0.853037 0.980589 2.563717 2.703249
-66.994372 63.193291 15.086491 178.988654 -48.873127 -2.225379 4.879667 23.563401 3.833846 0.618005 3.605447 0.417037 1.039521 5.817063 0.685979 3.968719 19.740730 2.842299 -0.413145 25.250876 5.865321 -2.074849 11.252896 10.492515 0.253361 5.498388 3.997471 -1.984500 -5.998154 -13.635226 -124.587777 -61.025401 157.191462 15.351003 0.167025 -4.089362 -8.197714 2.188161 1.297611 -1.985297 -5.087793 11.957774 -47.837063 -87.709389 27.132960 4.516875 6.586926 4.949054 -14.952444 -20.490678 -3.901637 -32.460128 79.062640 -32.885855 0.341183 11.866943 1.699017 1.690378 -25.100382 -8.471228 -0.884766 -20.922945 -2.888006 17.453438 60.243568 12.424911 1.316138 0.921957 -1.004574 0.513977 2.215181 2.540983
-67.022327 63.190630 15.079814 178.969080 -48.862458 -2.158494 4.876765 23.561531 3.778129 0.653459 3.633309 0.402151 1.027376 5.797293 0.692636 3.976121 19.745705 2.821273 -0.414771 25.188998 5.860289 -2.090455 11.121719 10.440100 0.318266 5.459332 4.028843 -1.977236 -6.007599 -13.625337 -124.615726 -61.042267 157.165362 15.343482 0.145572 -4.030192 -8.182478 2.155718 1.312295 -1.997651 -5.061557 11.973370 -47.598621 -87.779942 26.913438 4.501194 6.589200 4.975471 -14.817001 -20.507318 -3.895228 -32.618701 79.054282 -33.081023 0.284861 11.821859 1.714111 1.742613 -25.045458 -8.393240 -0.786954 -20.973183 -3.179769 16.982991 60.645799 11.803949 1.362109 0.346665 -1.256729 0.284701 1.955969 2.488250
-67.050533 63.189649 15.071910 178.946192 -48.865911 -2.101348 4.895999 23.587575 3.732895 0.653885 3.635298 0.402606 1.031742 5.792644 0.686118 3.972210 19.736833 2.825248 -0.418432 25.126404 5.791116 -2.097288 10.999219 10.416490 0.396387 5.434153 4.040886 -1.969635 -6.022638 -13.621956 -124.629923 -61.054978 157.130638 15.336820 0.124574 -3.982415 -8.157446 2.129764 1.292970 -1.926438 -5.019140 11.957508 -48.521325 -87.853083 27.775333 4.480666 6.588392 5.005969 -14.684551 -20.507110 -3.878697 -32.759534 79.043475 -33.262674 0.213056 11.801438 1.774834 1.785228 -25.016191 -8.348147 -0.681468 -20.992825 -3.481926 16.543195 61.016281 11.206041 1.278862 -0.219784 -1.544512 0.146654 1.748515 2.476429
-67.075794 63.188023 15.065674 178.944901 -48.862728 -2.087887 4.912367 23.605830 3.722832 0.657374 3.646666 0.394906 1.031440 5.783257 0.685995 3.966699 19.725601 2.824212 -0.420772 25.081946 5.735982 -2.102811 10.888747 10.398087 0.459801 5.412257 4.055747 -1.949917 -6.045110 -13.623412 -124.635638 -61.059781 157.111907 15.332191 0.115182 -3.964459 -8.136968 2.103555 1.271687 -1.907138 -4.995305 11.978934 -48.323019 -87.934447 27.561285 4.462148 6.584840 5.038587 -14.581373 -20.506977 -3.828723 -32.886433 79.031841 -33.435655 0.167687 11.786838 1.854024 1.807578 -24.990317 -8.317434 -0.583774 -21.002369 -3.774234 16.195418 61.343870 10.694929 1.053399 -0.740842 -1.864219 0.094719 1.554724 2.500729
-67.100230 63.185225 15.061986 178.926159 -48.848523 -2.072523 4.938211 23.614567 3.715700 0.660959 3.654851 0.393849 1.054377 5.825133 0.666919 3.966357 19.688039 2.827073 -0.428299 25.020312 5.700210 -2.110713 10.767418 10.377696 0.512799 5.368416 4.086478 -1.937168 -6.073685 -13.621283 -124.618296 -61.060802 157.082612 15.336647 0.108630 -3.966182 -8.135178 2.058674 1.271104 -1.889694 -4.977797 12.004804 -48.058997 -88.015724 27.281938 4.446380 6.578721 5.069453 -14.474945 -20.515309 -3.761491 -33.010935 79.019708 -33.606901 0.141850 11.752753 1.881685 1.780614 -24.947117 -8.225799 -0.457639 -21.006024 -4.071175 15.961724 61.623230 10.296798 0.733723 -1.219323 -2.191940 0.079061 1.378755 2.536307
-67.123612 63.183100 15.059597 178.918369 -48.836213 -2.075242 4.974819 23.649658 3.719100 0.652064 3.640715 0.396491 1.054611 5.822616 0.667940 3.997488 19.754849 2.789229 -0.434428 24.909066 5.723303 -2.125673 10.629756 10.322009 0.554721 5.267976 4.138060 -1.927130 -6.109600 -13.613393 -124.608259 -61.049819 157.112567 15.343037 0.140068 -4.031317 -8.154077 1.962043 1.325986 -1.873494 -4.968629 12.014608 -47.597682 -88.093655 26.814914 4.433185 6.571379 5.095061 -14.379971 -20.517851 -3.685913 -33.129935 79.002755 -33.769648 0.113429 11.722707 1.924330 1.739133 -24.907872 -8.143698 -0.318790 -20.989225 -4.377958 15.865111 61.835216 10.069089 0.245189 -1.616290 -2.557831 0.101458 1.102310 2.347990
-67.148831 63.180244 15.059754 178.893718 -48.814910 -2.056145 5.004314 23.664852 3.705895 0.653146 3.640696 0.397246 1.059020 5.834085 0.664100 4.011541 19.787039 2.767822 -0.430232 24.822684 5.759960 -2.150733 10.480533 10.230639 0.601344 5.190591 4.171338 -1.915661 -6.152424 -13.601876 -124.616259 -61.063373 157.091105 15.336180 0.157137 -4.056414 -8.158776 1.883640 1.362380 -1.876429 -4.964644 12.032976 -46.607134 -88.168134 25.826506 4.427903 6.564124 5.120893 -14.272886 -20.529074 -3.620053 -33.236990 78.980406 -33.917194 0.113005 11.664870 1.915394 1.647706 -24.840335 -8.002361 -0.146119 -20.967174 -4.701566 15.799036 62.003440 9.895505 -0.406566 -1.927150 -2.931317 0.117879 0.739353 1.966350
-67.177046 63.180845 15.058727 178.861698 -48.817852 -2.013533 5.027450 23.698629 3.673875 0.655933 3.648826 0.394689 1.067450 5.858801 0.655393 4.017820 19.792232 2.756797 -0.429122 24.744528 5.735658 -2.162520 10.333237 10.186627 0.645965 5.127922 4.195376 -1.901345 -6.201442 -13.586178 -124.608400 -61.087541 157.036638 15.329107 0.135984 -4.034563 -8.151779 1.839958 1.350395 -1.870811 -4.980193 12.082729 -45.553429 -88.243985 24.741951 4.426907 6.559989 5.157797 -14.153666 -20.521683 -3.584344 -33.321214 78.959317 -34.039359 0.091004 11.622945 1.936044 1.672759 -24.775935 -7.935715 0.053286 -20.907955 -5.036922 15.594934 62.173765 9.557637 -1.046575 -2.190971 -3.223123 0.072694 0.525114 1.864702
-67.204021 63.182478 15.058830 178.825005 -48.825382 -1.973429 5.050772 23.721396 3.653724 0.659809 3.671518 0.382031 1.068278 5.846331 0.664497 4.021930 19.801410 2.748782 -0.458402 24.693456 5.611263 -2.141234 10.196172 10.206708 0.687080 5.102715 4.194765 -1.889744 -6.257653 -13.563151 -124.587964 -61.114289 156.978159 15.328193 0.118691 -4.023154 -8.151791 1.810989 1.367181 -1.853900 -4.978380 12.082698 -43.987239 -88.324721 23.133730 4.421887 6.560555 5.204349 -14.036430 -20.507402 -3.545822 -33.385605 78.936861 -34.138380 0.060373 11.587866 1.970444 1.663944 -24.722454 -7.871015 0.262602 -20.830638 -5.379586 15.327013 62.313753 9.169970 -1.675539 -2.399261 -3.488058 0.014601 0.441224 1.994943
